<svg xmlns="http://www.w3.org/2000/svg" viewBox="0 0 1024 1024">
    <defs>
        <linearGradient id="bg" x1="164" y1="104" x2="860" y2="932" gradientUnits="userSpaceOnUse">
            <stop offset="0" stop-color="#6d86ff" />
            <stop offset="0.52" stop-color="#3f7cff" />
            <stop offset="1" stop-color="#16b4d8" />
        </linearGradient>
        <linearGradient id="shine" x1="186" y1="94" x2="750" y2="752" gradientUnits="userSpaceOnUse">
            <stop offset="0" stop-color="#ffffff" stop-opacity="0.22" />
            <stop offset="0.42" stop-color="#ffffff" stop-opacity="0.05" />
            <stop offset="1" stop-color="#ffffff" stop-opacity="0" />
        </linearGradient>
    </defs>

    <rect x="72" y="72" width="880" height="880" rx="168" fill="url(#bg)" />
    <path
        d="M240 72h544c92.78 0 168 75.22 168 168v26C770 214 573 190 360 224 245 242 151 280 72 332v-92C72 147.22 147.22 72 240 72Z"
        fill="url(#shine)"
    />

    <path d="M238 292h124v440H238V292Z" fill="#ffffff" />
    <path d="M662 292h124v440H662V292Z" fill="#ffffff" />
    <path d="M372 292h132l158 440H530L372 292Z" fill="#ffffff" />

    <path d="M290 742h174v56H290v-56Z" fill="#ffffff" opacity="0.92" />
    <path d="M624 742h124v56H624v-56Z" fill="#ffffff" opacity="0.92" />
    <rect x="758" y="742" width="64" height="56" rx="18" fill="#b8fff0" />
</svg>
